<?xml version="1.0" encoding="UTF-8"?>
<!--Generator: Apple Native CoreSVG 175.5-->
<!DOCTYPE svg
PUBLIC "-//W3C//DTD SVG 1.1//EN"
       "http://www.w3.org/Graphics/SVG/1.1/DTD/svg11.dtd">
<svg version="1.1" xmlns="http://www.w3.org/2000/svg" xmlns:xlink="http://www.w3.org/1999/xlink" width="3300" height="2200">
 <!--glyph: "uni100A9E.medium", point size: 100.0, font version: "18.0d11e1", template writer version: "90"-->
 <style>.monochrome-0 {fill:#000000}

.SFSymbolsPreview000000 {fill:#000000;opacity:1.0}
</style>
 <g id="Notes">
  <rect height="2200" id="artboard" style="fill:white;opacity:1" width="3300" x="0" y="0"/>
  <line style="fill:none;stroke:black;opacity:1;stroke-width:0.5;" x1="263" x2="3036" y1="292" y2="292"/>
  <text style="stroke:none;fill:black;font-family:sans-serif;font-size:13;font-weight:bold;" transform="matrix(1 0 0 1 263 322)">Weight/Scale Variations</text>
  <text style="stroke:none;fill:black;font-family:sans-serif;font-size:13;text-anchor:middle;" transform="matrix(1 0 0 1 559.711 322)">Ultralight</text>
  <text style="stroke:none;fill:black;font-family:sans-serif;font-size:13;text-anchor:middle;" transform="matrix(1 0 0 1 856.422 322)">Thin</text>
  <text style="stroke:none;fill:black;font-family:sans-serif;font-size:13;text-anchor:middle;" transform="matrix(1 0 0 1 1153.13 322)">Light</text>
  <text style="stroke:none;fill:black;font-family:sans-serif;font-size:13;text-anchor:middle;" transform="matrix(1 0 0 1 1449.84 322)">Regular</text>
  <text style="stroke:none;fill:black;font-family:sans-serif;font-size:13;text-anchor:middle;" transform="matrix(1 0 0 1 1746.56 322)">Medium</text>
  <text style="stroke:none;fill:black;font-family:sans-serif;font-size:13;text-anchor:middle;" transform="matrix(1 0 0 1 2043.27 322)">Semibold</text>
  <text style="stroke:none;fill:black;font-family:sans-serif;font-size:13;text-anchor:middle;" transform="matrix(1 0 0 1 2339.98 322)">Bold</text>
  <text style="stroke:none;fill:black;font-family:sans-serif;font-size:13;text-anchor:middle;" transform="matrix(1 0 0 1 2636.69 322)">Heavy</text>
  <text style="stroke:none;fill:black;font-family:sans-serif;font-size:13;text-anchor:middle;" transform="matrix(1 0 0 1 2933.4 322)">Black</text>
  <line style="fill:none;stroke:black;opacity:1;stroke-width:0.5;" x1="263" x2="3036" y1="1903" y2="1903"/>
  <g transform="matrix(1 0 0 1 263 1933)">
   <path d="M9.24805 0.830078C13.5547 0.830078 17.1387-2.74414 17.1387-7.05078C17.1387-11.3574 13.5449-14.9316 9.23828-14.9316C4.94141-14.9316 1.36719-11.3574 1.36719-7.05078C1.36719-2.74414 4.95117 0.830078 9.24805 0.830078ZM9.24805-0.654297C5.70312-0.654297 2.87109-3.49609 2.87109-7.05078C2.87109-10.6055 5.69336-13.4473 9.23828-13.4473C12.793-13.4473 15.6445-10.6055 15.6445-7.05078C15.6445-3.49609 12.8027-0.654297 9.24805-0.654297ZM5.6543-7.05078C5.6543-6.62109 5.95703-6.32812 6.40625-6.32812L8.50586-6.32812L8.50586-4.20898C8.50586-3.76953 8.79883-3.4668 9.22852-3.4668C9.67773-3.4668 9.9707-3.76953 9.9707-4.20898L9.9707-6.32812L12.0898-6.32812C12.5293-6.32812 12.832-6.62109 12.832-7.05078C12.832-7.49023 12.5293-7.79297 12.0898-7.79297L9.9707-7.79297L9.9707-9.90234C9.9707-10.3516 9.67773-10.6543 9.22852-10.6543C8.79883-10.6543 8.50586-10.3516 8.50586-9.90234L8.50586-7.79297L6.40625-7.79297C5.95703-7.79297 5.6543-7.49023 5.6543-7.05078Z"/>
  </g>
  <g transform="matrix(1 0 0 1 281.867 1933)">
   <path d="M11.709 2.91016C17.1582 2.91016 21.6699-1.61133 21.6699-7.05078C21.6699-12.5 17.1484-17.0117 11.6992-17.0117C6.25977-17.0117 1.74805-12.5 1.74805-7.05078C1.74805-1.61133 6.26953 2.91016 11.709 2.91016ZM11.709 1.25C7.09961 1.25 3.41797-2.44141 3.41797-7.05078C3.41797-11.6602 7.08984-15.3516 11.6992-15.3516C16.3086-15.3516 20.0098-11.6602 20.0098-7.05078C20.0098-2.44141 16.3184 1.25 11.709 1.25ZM7.17773-7.05078C7.17773-6.57227 7.50977-6.25 8.00781-6.25L10.8789-6.25L10.8789-3.36914C10.8789-2.88086 11.2109-2.53906 11.6895-2.53906C12.1777-2.53906 12.5195-2.87109 12.5195-3.36914L12.5195-6.25L15.4004-6.25C15.8887-6.25 16.2305-6.57227 16.2305-7.05078C16.2305-7.53906 15.8887-7.88086 15.4004-7.88086L12.5195-7.88086L12.5195-10.752C12.5195-11.25 12.1777-11.5918 11.6895-11.5918C11.2109-11.5918 10.8789-11.25 10.8789-10.752L10.8789-7.88086L8.00781-7.88086C7.50977-7.88086 7.17773-7.53906 7.17773-7.05078Z"/>
  </g>
  <g transform="matrix(1 0 0 1 305.646 1933)">
   <path d="M14.9707 5.66406C21.9336 5.66406 27.6953-0.0976562 27.6953-7.05078C27.6953-14.0137 21.9238-19.7754 14.9609-19.7754C8.00781-19.7754 2.25586-14.0137 2.25586-7.05078C2.25586-0.0976562 8.01758 5.66406 14.9707 5.66406ZM14.9707 3.84766C8.93555 3.84766 4.08203-1.01562 4.08203-7.05078C4.08203-13.0957 8.92578-17.9492 14.9609-17.9492C21.0059-17.9492 25.8691-13.0957 25.8691-7.05078C25.8691-1.01562 21.0156 3.84766 14.9707 3.84766ZM9.19922-7.05078C9.19922-6.5332 9.57031-6.17188 10.1172-6.17188L14.0625-6.17188L14.0625-2.2168C14.0625-1.67969 14.4336-1.29883 14.9512-1.29883C15.4883-1.29883 15.8594-1.66992 15.8594-2.2168L15.8594-6.17188L19.8145-6.17188C20.3516-6.17188 20.7324-6.5332 20.7324-7.05078C20.7324-7.59766 20.3613-7.96875 19.8145-7.96875L15.8594-7.96875L15.8594-11.9141C15.8594-12.4609 15.4883-12.8418 14.9512-12.8418C14.4336-12.8418 14.0625-12.4609 14.0625-11.9141L14.0625-7.96875L10.1172-7.96875C9.57031-7.96875 9.19922-7.59766 9.19922-7.05078Z"/>
  </g>
  <text style="stroke:none;fill:black;font-family:sans-serif;font-size:13;font-weight:bold;" transform="matrix(1 0 0 1 263 1953)">Design Variations</text>
  <text style="stroke:none;fill:black;font-family:sans-serif;font-size:13;" transform="matrix(1 0 0 1 263 1971)">Symbols are supported in up to nine weights and three scales.</text>
  <text style="stroke:none;fill:black;font-family:sans-serif;font-size:13;" transform="matrix(1 0 0 1 263 1989)">For optimal layout with text and other symbols, vertically align</text>
  <text style="stroke:none;fill:black;font-family:sans-serif;font-size:13;" transform="matrix(1 0 0 1 263 2007)">symbols with the adjacent text.</text>
  <line style="fill:none;stroke:#00AEEF;stroke-width:0.5;opacity:1.0;" x1="776" x2="776" y1="1919" y2="1933"/>
  <g transform="matrix(1 0 0 1 776 1933)">
   <path d="M3.31055 0.15625C3.82812 0.15625 4.08203-0.0390625 4.26758-0.585938L5.52734-4.0332L11.2891-4.0332L12.5488-0.585938C12.7344-0.0390625 12.9883 0.15625 13.4961 0.15625C14.0137 0.15625 14.3457-0.15625 14.3457-0.644531C14.3457-0.810547 14.3164-0.966797 14.2383-1.17188L9.6582-13.3691C9.43359-13.9648 9.0332-14.2676 8.4082-14.2676C7.80273-14.2676 7.39258-13.9746 7.17773-13.3789L2.59766-1.16211C2.51953-0.957031 2.49023-0.800781 2.49023-0.634766C2.49023-0.146484 2.80273 0.15625 3.31055 0.15625ZM6.00586-5.51758L8.37891-12.0898L8.42773-12.0898L10.8008-5.51758Z"/>
  </g>
  <line style="fill:none;stroke:#00AEEF;stroke-width:0.5;opacity:1.0;" x1="793.197" x2="793.197" y1="1919" y2="1933"/>
  <text style="stroke:none;fill:black;font-family:sans-serif;font-size:13;font-weight:bold;" transform="matrix(1 0 0 1 776 1953)">Margins</text>
  <text style="stroke:none;fill:black;font-family:sans-serif;font-size:13;" transform="matrix(1 0 0 1 776 1971)">Leading and trailing margins on the left and right side of each symbol</text>
  <text style="stroke:none;fill:black;font-family:sans-serif;font-size:13;" transform="matrix(1 0 0 1 776 1989)">can be adjusted by modifying the x-location of the margin guidelines.</text>
  <text style="stroke:none;fill:black;font-family:sans-serif;font-size:13;" transform="matrix(1 0 0 1 776 2007)">Modifications are automatically applied proportionally to all</text>
  <text style="stroke:none;fill:black;font-family:sans-serif;font-size:13;" transform="matrix(1 0 0 1 776 2025)">scales and weights.</text>
  <g transform="matrix(1 0 0 1 1289 1933)">
   <path d="M2.8418 1.86523L4.54102 3.57422C5.40039 4.44336 6.38672 4.38477 7.31445 3.35938L18.0078-8.42773L17.041-9.4043L6.42578 2.27539C6.07422 2.67578 5.74219 2.77344 5.27344 2.30469L4.10156 1.14258C3.63281 0.683594 3.74023 0.341797 4.14062-0.0195312L15.6152-10.8203L14.6387-11.7871L3.04688-0.898438C2.06055 0.0195312 1.98242 0.996094 2.8418 1.86523ZM9.25781-16.3281C8.83789-15.918 8.80859-15.3418 9.04297-14.9512C9.27734-14.5898 9.73633-14.3555 10.3809-14.5215C11.8457-14.8633 13.3691-14.9219 14.7949-13.9844L14.209-12.5293C13.8672-11.6992 14.043-11.1133 14.5801-10.5664L16.875-8.25195C17.3633-7.76367 17.7734-7.74414 18.3398-7.8418L19.4043-8.03711L20.0684-7.36328L20.0293-6.80664C19.9902-6.30859 20.1172-5.92773 20.6055-5.44922L21.3672-4.70703C21.8457-4.22852 22.4609-4.19922 22.9297-4.66797L25.8398-7.58789C26.3086-8.05664 26.2891-8.65234 25.8105-9.13086L25.0391-9.89258C24.5605-10.3711 24.1895-10.5273 23.7109-10.4883L23.1348-10.4395L22.4902-11.0742L22.7344-12.1973C22.8613-12.7637 22.7051-13.2031 22.1191-13.7891L19.9219-15.9766C16.582-19.2969 12.1484-19.2188 9.25781-16.3281ZM10.752-15.957C13.1836-17.7344 16.4746-17.4316 18.7012-15.2051L21.1328-12.793C21.3672-12.5586 21.4062-12.373 21.3379-12.0312L21.0156-10.5469L22.5195-9.0625L23.5059-9.12109C23.7598-9.13086 23.8379-9.11133 24.0332-8.91602L24.6094-8.33984L22.168-5.89844L21.5918-6.47461C21.3965-6.66992 21.3672-6.74805 21.377-7.01172L21.4453-7.98828L19.9512-9.47266L18.4277-9.21875C18.1055-9.15039 17.959-9.17969 17.7148-9.41406L15.7129-11.416C15.459-11.6504 15.4297-11.8164 15.5859-12.1875L16.4648-14.2773C14.9023-15.7324 12.8711-16.3574 10.8398-15.7617C10.6836-15.7227 10.625-15.8496 10.752-15.957Z"/>
  </g>
  <text style="stroke:none;fill:black;font-family:sans-serif;font-size:13;font-weight:bold;" transform="matrix(1 0 0 1 1289 1953)">Exporting</text>
  <text style="stroke:none;fill:black;font-family:sans-serif;font-size:13;" transform="matrix(1 0 0 1 1289 1971)">Symbols should be outlined when exporting to ensure the</text>
  <text style="stroke:none;fill:black;font-family:sans-serif;font-size:13;" transform="matrix(1 0 0 1 1289 1989)">design is preserved when submitting to Xcode.</text>
  <text id="template-version" style="stroke:none;fill:black;font-family:sans-serif;font-size:13;text-anchor:end;" transform="matrix(1 0 0 1 3036 1933)">Template v.4.0</text>
  <text style="stroke:none;fill:black;font-family:sans-serif;font-size:13;text-anchor:end;" transform="matrix(1 0 0 1 3036 1951)">Requires Xcode 14 or greater</text>
  <text id="descriptive-name" style="stroke:none;fill:black;font-family:sans-serif;font-size:13;text-anchor:end;" transform="matrix(1 0 0 1 3036 1969)">Generated from printer.dotmatrix</text>
  <text style="stroke:none;fill:black;font-family:sans-serif;font-size:13;text-anchor:end;" transform="matrix(1 0 0 1 3036 1987)">Typeset at 100 points</text>
  <text style="stroke:none;fill:black;font-family:sans-serif;font-size:13;" transform="matrix(1 0 0 1 263 726)">Small</text>
  <text style="stroke:none;fill:black;font-family:sans-serif;font-size:13;" transform="matrix(1 0 0 1 263 1156)">Medium</text>
  <text style="stroke:none;fill:black;font-family:sans-serif;font-size:13;" transform="matrix(1 0 0 1 263 1586)">Large</text>
 </g>
 <g id="Guides">
  <g id="H-reference" style="fill:#27AAE1;stroke:none;" transform="matrix(1 0 0 1 339 696)">
   <path d="M0.993654 0L3.63775 0L29.3281-67.1323L30.0303-67.1323L30.0303-70.459L28.1226-70.459ZM11.6885-24.4799L46.9815-24.4799L46.2315-26.7285L12.4385-26.7285ZM55.1196 0L57.7637 0L30.6382-70.459L29.4326-70.459L29.4326-67.1323Z"/>
  </g>
  <line id="Baseline-S" style="fill:none;stroke:#27AAE1;opacity:1;stroke-width:0.5;" x1="263" x2="3036" y1="696" y2="696"/>
  <line id="Capline-S" style="fill:none;stroke:#27AAE1;opacity:1;stroke-width:0.5;" x1="263" x2="3036" y1="625.541" y2="625.541"/>
  <g id="H-reference" style="fill:#27AAE1;stroke:none;" transform="matrix(1 0 0 1 339 1126)">
   <path d="M0.993654 0L3.63775 0L29.3281-67.1323L30.0303-67.1323L30.0303-70.459L28.1226-70.459ZM11.6885-24.4799L46.9815-24.4799L46.2315-26.7285L12.4385-26.7285ZM55.1196 0L57.7637 0L30.6382-70.459L29.4326-70.459L29.4326-67.1323Z"/>
  </g>
  <line id="Baseline-M" style="fill:none;stroke:#27AAE1;opacity:1;stroke-width:0.5;" x1="263" x2="3036" y1="1126" y2="1126"/>
  <line id="Capline-M" style="fill:none;stroke:#27AAE1;opacity:1;stroke-width:0.5;" x1="263" x2="3036" y1="1055.54" y2="1055.54"/>
  <g id="H-reference" style="fill:#27AAE1;stroke:none;" transform="matrix(1 0 0 1 339 1556)">
   <path d="M0.993654 0L3.63775 0L29.3281-67.1323L30.0303-67.1323L30.0303-70.459L28.1226-70.459ZM11.6885-24.4799L46.9815-24.4799L46.2315-26.7285L12.4385-26.7285ZM55.1196 0L57.7637 0L30.6382-70.459L29.4326-70.459L29.4326-67.1323Z"/>
  </g>
  <line id="Baseline-L" style="fill:none;stroke:#27AAE1;opacity:1;stroke-width:0.5;" x1="263" x2="3036" y1="1556" y2="1556"/>
  <line id="Capline-L" style="fill:none;stroke:#27AAE1;opacity:1;stroke-width:0.5;" x1="263" x2="3036" y1="1485.54" y2="1485.54"/>
  <line id="left-margin-Ultralight-S" style="fill:none;stroke:#00AEEF;stroke-width:0.5;opacity:1.0;" x1="509.214" x2="509.214" y1="600.785" y2="720.121"/>
  <line id="right-margin-Ultralight-S" style="fill:none;stroke:#00AEEF;stroke-width:0.5;opacity:1.0;" x1="610.209" x2="610.209" y1="600.785" y2="720.121"/>
  <line id="left-margin-Regular-S" style="fill:none;stroke:#00AEEF;stroke-width:0.5;opacity:1.0;" x1="1396.3" x2="1396.3" y1="600.785" y2="720.121"/>
  <line id="right-margin-Regular-S" style="fill:none;stroke:#00AEEF;stroke-width:0.5;opacity:1.0;" x1="1503.38" x2="1503.38" y1="600.785" y2="720.121"/>
  <line id="left-margin-Black-S" style="fill:none;stroke:#00AEEF;stroke-width:0.5;opacity:1.0;" x1="2877.44" x2="2877.44" y1="600.785" y2="720.121"/>
  <line id="right-margin-Black-S" style="fill:none;stroke:#00AEEF;stroke-width:0.5;opacity:1.0;" x1="2989.36" x2="2989.36" y1="600.785" y2="720.121"/>
 </g>
 <g id="Symbols">
  <g id="Black-S" transform="matrix(1 0 0 1 2877.44 696)">
   <path class="monochrome-0 SFSymbolsPreview000000" d="M40.5273 9.27734L71.3867 9.27734C79.6875 9.27734 83.5449 5.41992 83.5449-2.88086L83.5449-27.5879C83.5449-35.8887 79.6875-39.7461 71.3867-39.7461L40.5273-39.7461C32.2266-39.7461 28.3691-35.8887 28.3691-27.5879L28.3691-2.88086C28.3691 5.41992 32.2266 9.27734 40.5273 9.27734ZM40.5273-1.41602C39.6484-1.41602 39.1113-1.9043 39.1113-2.83203L39.1113-27.5879C39.1113-28.5156 39.6484-29.0039 40.5273-29.0039L71.3867-29.0039C72.2656-29.0039 72.8027-28.5156 72.8027-27.5879L72.8027-2.83203C72.8027-1.9043 72.2656-1.41602 71.3867-1.41602ZM24.8047-4.39453L34.375-4.39453L34.375-16.1133L25.1465-16.1133C23.0957-16.1133 21.9727-17.2363 21.9727-19.2871L21.9727-51.6602C21.9727-53.7109 23.0957-54.8828 25.1465-54.8828L86.7676-54.8828C88.8184-54.8828 89.9414-53.7109 89.9414-51.6602L89.9414-19.2871C89.9414-17.2363 88.8184-16.1133 86.7676-16.1133L78.3203-16.1133L78.3203-4.39453L87.1094-4.39453C96.6309-4.39453 102.148-9.91211 102.148-19.4336L102.148-51.5625C102.148-61.084 96.6309-66.6016 87.1094-66.6016L24.8047-66.6016C15.2832-66.6016 9.76562-61.084 9.76562-51.5625L9.76562-19.4336C9.76562-9.91211 15.2832-4.39453 24.8047-4.39453ZM27.0508-62.5L39.2578-62.5L39.2578-69.9219C39.2578-71.2402 40.0391-71.9727 41.2598-71.9727L70.6543-71.9727C71.875-71.9727 72.6562-71.2402 72.6562-69.9219L72.6562-62.5L84.8633-62.5L84.8633-68.8477C84.8633-78.125 80.2734-82.7148 70.9961-82.7148L40.918-82.7148C31.6406-82.7148 27.0508-78.125 27.0508-68.8477ZM71.4355-47.4121C71.4355-44.1406 74.0723-41.5527 77.3438-41.5527C80.5664-41.5527 83.2031-44.1406 83.2031-47.4121C83.2031-50.5859 80.5176-53.2715 77.3438-53.2715C74.1211-53.2715 71.4355-50.5859 71.4355-47.4121ZM64.5508-2.83203C66.6504-2.83203 68.3594-4.54102 68.3594-6.64062C68.3594-8.74023 66.6504-10.4492 64.5508-10.4492C62.4512-10.4492 60.7422-8.74023 60.7422-6.64062C60.7422-4.54102 62.4512-2.83203 64.5508-2.83203ZM64.5508-20.0195C66.6504-20.0195 68.3594-21.7285 68.3594-23.8281C68.3594-25.9277 66.6504-27.6367 64.5508-27.6367C62.4512-27.6367 60.7422-25.9277 60.7422-23.8281C60.7422-21.7285 62.4512-20.0195 64.5508-20.0195ZM47.3145-2.83203C49.4141-2.83203 51.123-4.54102 51.123-6.64062C51.123-8.74023 49.4141-10.4492 47.3145-10.4492C45.2148-10.4492 43.5059-8.74023 43.5059-6.64062C43.5059-4.54102 45.2148-2.83203 47.3145-2.83203ZM47.3145-20.0195C49.4141-20.0195 51.123-21.7285 51.123-23.8281C51.123-25.9277 49.4141-27.6367 47.3145-27.6367C45.2148-27.6367 43.5059-25.9277 43.5059-23.8281C43.5059-21.7285 45.2148-20.0195 47.3145-20.0195ZM64.5508-11.4258C66.6504-11.4258 68.3594-13.1348 68.3594-15.2344C68.3594-17.334 66.6504-19.043 64.5508-19.043C62.4512-19.043 60.7422-17.334 60.7422-15.2344C60.7422-12.9883 62.4512-11.4258 64.5508-11.4258ZM47.3145-11.4258C49.4141-11.4258 51.123-13.1348 51.123-15.2344C51.123-17.334 49.4141-19.043 47.3145-19.043C45.2148-19.043 43.5059-17.334 43.5059-15.2344C43.5059-13.1348 45.2148-11.4258 47.3145-11.4258Z"/>
  </g>
  <g id="Regular-S" transform="matrix(1 0 0 1 1396.3 696)">
   <path class="monochrome-0 SFSymbolsPreview000000" d="M32.4707 7.12891L74.6094 7.12891C79.2969 7.12891 81.7383 4.98047 81.7383 0L81.7383-31.7383C81.7383-36.7188 79.2969-38.8672 74.6094-38.8672L32.4707-38.8672C28.0762-38.8672 25.3418-36.7188 25.3418-31.7383L25.3418 0C25.3418 4.98047 27.7832 7.12891 32.4707 7.12891ZM34.7656 0.585938C33.252 0.585938 32.373-0.244141 32.373-1.85547L32.373-29.9316C32.373-31.4941 33.252-32.3242 34.7656-32.3242L72.3145-32.3242C73.877-32.3242 74.6582-31.4941 74.6582-29.9316L74.6582-1.85547C74.6582-0.244141 73.877 0.585938 72.3145 0.585938ZM21.6309-4.10156L29.3945-4.10156L29.3945-10.6934L21.5332-10.6934C18.5059-10.6934 16.7969-12.3535 16.7969-15.4297L16.7969-51.9043C16.7969-54.9316 18.5059-56.6406 21.5332-56.6406L85.5469-56.6406C88.5742-56.6406 90.2344-54.9316 90.2344-51.9043L90.2344-15.4297C90.2344-12.3535 88.5742-10.6934 85.5469-10.6934L78.3203-10.6934L78.3203-4.10156L85.4492-4.10156C93.1641-4.10156 97.3145-8.05664 97.3145-15.7715L97.3145-51.5625C97.3145-59.2773 93.1641-63.2324 85.4492-63.2324L21.6309-63.2324C14.3555-63.2324 9.76562-59.2773 9.76562-51.5625L9.76562-15.7715C9.76562-8.05664 13.916-4.10156 21.6309-4.10156ZM25-59.2773L31.7871-59.2773L31.7871-65.2344C31.7871-68.1152 33.3984-69.6777 36.3281-69.6777L70.752-69.6777C73.6816-69.6777 75.293-68.1152 75.293-65.2344L75.293-59.375L82.0312-59.375L82.0312-64.6973C82.0312-72.5586 78.0762-76.0254 70.6543-76.0254L36.4258-76.0254C29.4434-76.0254 25-72.5586 25-64.6973ZM72.3145-47.7539C72.3145-45.0195 74.5117-42.8711 77.1973-42.8711C79.834-42.8711 82.0312-45.0195 82.0312-47.7539C82.0312-50.3418 79.834-52.5879 77.1973-52.5879C74.5117-52.5879 72.3145-50.3418 72.3145-47.7539ZM65.3809-2.19727C67.3828-2.19727 68.9453-3.75977 68.9453-5.71289C68.9453-7.71484 67.3828-9.27734 65.3809-9.27734C63.4277-9.27734 61.8652-7.71484 61.8652-5.71289C61.8652-3.75977 63.4277-2.19727 65.3809-2.19727ZM65.3809-22.4609C67.3828-22.4609 68.9453-24.0234 68.9453-26.0254C68.9453-27.9785 67.3828-29.541 65.3809-29.541C63.4277-29.541 61.8652-27.9785 61.8652-26.0254C61.8652-24.0234 63.4277-22.4609 65.3809-22.4609ZM41.6992-2.19727C43.6523-2.19727 45.2637-3.75977 45.2637-5.71289C45.2637-7.71484 43.6523-9.27734 41.6992-9.27734C39.7461-9.27734 38.1836-7.71484 38.1836-5.71289C38.1836-3.75977 39.7461-2.19727 41.6992-2.19727ZM41.6992-22.4609C43.6523-22.4609 45.2637-24.0234 45.2637-26.0254C45.2637-27.9785 43.6523-29.541 41.6992-29.541C39.7461-29.541 38.1836-27.9785 38.1836-26.0254C38.1836-24.0234 39.7461-22.4609 41.6992-22.4609ZM65.3809-12.3535C67.3828-12.3535 68.9453-13.8672 68.9453-15.8691C68.9453-17.8711 67.3828-19.3848 65.3809-19.3848C63.4277-19.3848 61.8652-17.8711 61.8652-15.8691C61.8652-13.8672 63.4277-12.3535 65.3809-12.3535ZM41.6992-12.3535C43.6523-12.3535 45.2637-13.8672 45.2637-15.8691C45.2637-17.8711 43.6523-19.3848 41.6992-19.3848C39.7461-19.3848 38.1836-17.8711 38.1836-15.8691C38.1836-13.8672 39.7461-12.3535 41.6992-12.3535Z"/>
  </g>
  <g id="Ultralight-S" transform="matrix(1 0 0 1 509.214 696)">
   <path class="monochrome-0 SFSymbolsPreview000000" d="M32.5615 4.13186L68.4336 4.13186C73.9839 4.13186 76.5616 1.62014 76.5616-3.95065L76.5616-32.6919C76.5616-38.3081 73.9839-40.7744 68.4336-40.7744L32.5615-40.7744C26.9863-40.7744 24.479-38.3081 24.479-32.6919L24.479-3.95065C24.479 1.62014 27.0112 4.13186 32.5615 4.13186ZM32.6768 1.94823C28.3477 1.94823 26.7422 0.300777 26.7422-4.03514L26.7422-32.6108C26.7422-36.9887 28.3477-38.5908 32.6768-38.5908L68.3184-38.5908C72.6509-38.5908 74.2495-36.9887 74.2495-32.6108L74.2495-4.03514C74.2495 0.300777 72.6509 1.94823 68.3184 1.94823ZM19.0425-7.59812L25.6255-7.59812L25.6255-9.78516L19.0357-9.78516C14.1465-9.78516 12.0743-11.8994 12.0743-16.792L12.0743-52.8125C12.0743-57.7016 14.1465-59.8647 19.0357-59.8647L81.9595-59.8647C86.8486-59.8647 88.9175-57.7016 88.9175-52.8125L88.9175-16.792C88.9175-11.8994 86.8486-9.78516 81.9595-9.78516L75.0962-9.78516L75.0962-7.59812L81.9527-7.59812C88.169-7.59812 91.2295-10.5996 91.2295-16.7705L91.2295-52.834C91.2295-59.0049 88.169-62.0064 81.9527-62.0064L19.0425-62.0064C12.8569-62.0064 9.76562-59.0049 9.76562-52.834L9.76562-16.7705C9.76562-10.5996 12.8262-7.59812 19.0425-7.59812ZM24.4551-60.7759L26.7466-60.7759L26.7466-66.5058C26.7466-70.8852 28.3579-72.5386 32.7408-72.5386L68.2544-72.5386C72.6826-72.5386 74.294-70.8852 74.294-66.5058L74.294-60.7827L76.5367-60.7827L76.5367-66.4682C76.5367-72.1953 73.9439-74.7085 68.2476-74.7085L32.7476-74.7085C27.082-74.7085 24.4551-72.1953 24.4551-66.4682ZM67.9097-49.8882C67.9097-47.3808 69.9253-45.5503 72.3384-45.5503C74.5664-45.5503 76.5821-47.5171 76.5821-49.8882C76.5821-52.1582 74.5664-54.2226 72.3384-54.2226C69.9253-54.2226 67.9097-52.1582 67.9097-49.8882ZM64.5181-3.01464C66.1567-3.01464 67.4922-4.30468 67.4922-5.98535C67.4922-7.66943 66.1567-8.95948 64.5181-8.95948C62.8828-8.95948 61.5474-7.66943 61.5474-5.98535C61.5474-4.30468 62.8828-3.01464 64.5181-3.01464ZM64.5181-27.7285C66.1567-27.7285 67.4922-28.9731 67.4922-30.6572C67.4922-32.3379 66.1567-33.6279 64.5181-33.6279C62.8828-33.6279 61.5474-32.3379 61.5474-30.6572C61.5474-28.9731 62.8828-27.7285 64.5181-27.7285ZM36.5679-3.01464C38.2032-3.01464 39.542-4.30468 39.542-5.98535C39.542-7.66943 38.2032-8.95948 36.5679-8.95948C34.9327-8.95948 33.5972-7.66943 33.5972-5.98535C33.5972-4.30468 34.9327-3.01464 36.5679-3.01464ZM36.5679-27.7285C38.2032-27.7285 39.542-28.9731 39.542-30.6572C39.542-32.3379 38.2032-33.6279 36.5679-33.6279C34.9327-33.6279 33.5972-32.3379 33.5972-30.6572C33.5972-28.9731 34.9327-27.7285 36.5679-27.7285ZM64.5181-15.3506C66.1567-15.3506 67.4922-16.6372 67.4922-18.3213C67.4922-20.0054 66.1567-21.292 64.5181-21.292C62.8828-21.292 61.5474-20.0054 61.5474-18.3213C61.5474-16.6372 62.8828-15.3506 64.5181-15.3506ZM36.5679-15.3506C38.2032-15.3506 39.542-16.6372 39.542-18.3213C39.542-20.0054 38.2032-21.292 36.5679-21.292C34.9327-21.292 33.5972-20.0054 33.5972-18.3213C33.5972-16.6372 34.9327-15.3506 36.5679-15.3506Z"/>
  </g>
 </g>
</svg>
